<mxfile host="app.diagrams.net" modified="2023-05-12T17:25:32.543Z" agent="Mozilla/5.0 (Windows NT 10.0; Win64; x64) AppleWebKit/537.36 (KHTML, like Gecko) Chrome/113.0.0.0 Safari/537.36" etag="2mgE8dHsX8uaONnx2BqP" version="21.2.9" type="device">
  <diagram name="PÃ¡gina-1" id="Q2H-x6xDgRl6up6TvfIX">
    <mxGraphModel dx="1600" dy="880" grid="1" gridSize="10" guides="1" tooltips="1" connect="1" arrows="1" fold="1" page="1" pageScale="1" pageWidth="1169" pageHeight="827" math="0" shadow="0">
      <root>
        <mxCell id="0" />
        <mxCell id="1" parent="0" />
        <mxCell id="hiWiFX9fn5PAp972aiHe-1" value="EMPRESA" style="swimlane;childLayout=stackLayout;horizontal=1;startSize=50;horizontalStack=0;rounded=1;fontSize=14;fontStyle=0;strokeWidth=2;resizeParent=0;resizeLast=1;shadow=0;dashed=0;align=center;arcSize=4;whiteSpace=wrap;html=1;" vertex="1" parent="1">
          <mxGeometry x="811" y="189" width="130" height="160" as="geometry" />
        </mxCell>
        <mxCell id="hiWiFX9fn5PAp972aiHe-2" value="cnpj PK&lt;br&gt;nome&lt;br&gt;endereco&lt;br&gt;cidade&lt;br&gt;estado&lt;br&gt;telefone&lt;br&gt;codcidade FK" style="align=left;strokeColor=none;fillColor=none;spacingLeft=4;fontSize=12;verticalAlign=top;resizable=0;rotatable=0;part=1;html=1;" vertex="1" parent="hiWiFX9fn5PAp972aiHe-1">
          <mxGeometry y="50" width="130" height="110" as="geometry" />
        </mxCell>
        <mxCell id="hiWiFX9fn5PAp972aiHe-3" value="CIDADE" style="swimlane;childLayout=stackLayout;horizontal=1;startSize=50;horizontalStack=0;rounded=1;fontSize=14;fontStyle=0;strokeWidth=2;resizeParent=0;resizeLast=1;shadow=0;dashed=0;align=center;arcSize=4;whiteSpace=wrap;html=1;" vertex="1" parent="1">
          <mxGeometry x="816" y="443" width="120" height="106" as="geometry" />
        </mxCell>
        <mxCell id="hiWiFX9fn5PAp972aiHe-4" value="codigo PK&amp;nbsp;&lt;br&gt;nome&lt;br&gt;salario" style="align=left;strokeColor=none;fillColor=none;spacingLeft=4;fontSize=12;verticalAlign=top;resizable=0;rotatable=0;part=1;html=1;" vertex="1" parent="hiWiFX9fn5PAp972aiHe-3">
          <mxGeometry y="50" width="120" height="56" as="geometry" />
        </mxCell>
        <mxCell id="hiWiFX9fn5PAp972aiHe-6" value="FUNCIONARIO" style="swimlane;childLayout=stackLayout;horizontal=1;startSize=50;horizontalStack=0;rounded=1;fontSize=14;fontStyle=0;strokeWidth=2;resizeParent=0;resizeLast=1;shadow=0;dashed=0;align=center;arcSize=4;whiteSpace=wrap;html=1;" vertex="1" parent="1">
          <mxGeometry x="479" y="439" width="135" height="200" as="geometry" />
        </mxCell>
        <mxCell id="hiWiFX9fn5PAp972aiHe-7" value="codigo PK&lt;br&gt;nome&lt;br&gt;endereco&lt;br&gt;cidade&lt;br&gt;estado&amp;nbsp;&lt;br&gt;telefone&lt;br&gt;codcargo FK&lt;br&gt;codsetor FK&lt;br&gt;codcidade FK" style="align=left;strokeColor=none;fillColor=none;spacingLeft=4;fontSize=12;verticalAlign=top;resizable=0;rotatable=0;part=1;html=1;" vertex="1" parent="hiWiFX9fn5PAp972aiHe-6">
          <mxGeometry y="50" width="135" height="150" as="geometry" />
        </mxCell>
        <mxCell id="hiWiFX9fn5PAp972aiHe-8" value="SETOR" style="swimlane;childLayout=stackLayout;horizontal=1;startSize=50;horizontalStack=0;rounded=1;fontSize=14;fontStyle=0;strokeWidth=2;resizeParent=0;resizeLast=1;shadow=0;dashed=0;align=center;arcSize=4;whiteSpace=wrap;html=1;" vertex="1" parent="1">
          <mxGeometry x="480.5" y="189" width="130" height="140" as="geometry" />
        </mxCell>
        <mxCell id="hiWiFX9fn5PAp972aiHe-9" value="codigo PK&lt;br&gt;nome&lt;br&gt;gerente&lt;br&gt;telefone&lt;br&gt;codempresa FK" style="align=left;strokeColor=none;fillColor=none;spacingLeft=4;fontSize=12;verticalAlign=top;resizable=0;rotatable=0;part=1;html=1;" vertex="1" parent="hiWiFX9fn5PAp972aiHe-8">
          <mxGeometry y="50" width="130" height="90" as="geometry" />
        </mxCell>
        <mxCell id="hiWiFX9fn5PAp972aiHe-15" value="" style="endArrow=none;html=1;rounded=0;" edge="1" parent="1">
          <mxGeometry relative="1" as="geometry">
            <mxPoint x="615" y="489" as="sourcePoint" />
            <mxPoint x="814" y="489" as="targetPoint" />
          </mxGeometry>
        </mxCell>
        <mxCell id="hiWiFX9fn5PAp972aiHe-16" value="1" style="resizable=0;html=1;whiteSpace=wrap;align=left;verticalAlign=bottom;" connectable="0" vertex="1" parent="hiWiFX9fn5PAp972aiHe-15">
          <mxGeometry x="-1" relative="1" as="geometry">
            <mxPoint x="183" y="-1" as="offset" />
          </mxGeometry>
        </mxCell>
        <mxCell id="hiWiFX9fn5PAp972aiHe-17" value="N" style="resizable=0;html=1;whiteSpace=wrap;align=right;verticalAlign=bottom;" connectable="0" vertex="1" parent="hiWiFX9fn5PAp972aiHe-15">
          <mxGeometry x="1" relative="1" as="geometry">
            <mxPoint x="-180" y="-1" as="offset" />
          </mxGeometry>
        </mxCell>
        <mxCell id="hiWiFX9fn5PAp972aiHe-21" value="" style="endArrow=none;html=1;rounded=0;" edge="1" parent="1">
          <mxGeometry relative="1" as="geometry">
            <mxPoint x="611" y="269" as="sourcePoint" />
            <mxPoint x="810" y="269" as="targetPoint" />
          </mxGeometry>
        </mxCell>
        <mxCell id="hiWiFX9fn5PAp972aiHe-22" value="1" style="resizable=0;html=1;whiteSpace=wrap;align=left;verticalAlign=bottom;" connectable="0" vertex="1" parent="hiWiFX9fn5PAp972aiHe-21">
          <mxGeometry x="-1" relative="1" as="geometry">
            <mxPoint x="5" y="-1" as="offset" />
          </mxGeometry>
        </mxCell>
        <mxCell id="hiWiFX9fn5PAp972aiHe-23" value="N" style="resizable=0;html=1;whiteSpace=wrap;align=right;verticalAlign=bottom;" connectable="0" vertex="1" parent="hiWiFX9fn5PAp972aiHe-21">
          <mxGeometry x="1" relative="1" as="geometry">
            <mxPoint x="-7" y="-1" as="offset" />
          </mxGeometry>
        </mxCell>
        <mxCell id="hiWiFX9fn5PAp972aiHe-24" value="" style="endArrow=none;html=1;rounded=0;" edge="1" parent="1">
          <mxGeometry relative="1" as="geometry">
            <mxPoint x="884" y="440" as="sourcePoint" />
            <mxPoint x="884" y="350" as="targetPoint" />
          </mxGeometry>
        </mxCell>
        <mxCell id="hiWiFX9fn5PAp972aiHe-25" value="1" style="resizable=0;html=1;whiteSpace=wrap;align=left;verticalAlign=bottom;" connectable="0" vertex="1" parent="hiWiFX9fn5PAp972aiHe-24">
          <mxGeometry x="-1" relative="1" as="geometry">
            <mxPoint x="-19" y="-1" as="offset" />
          </mxGeometry>
        </mxCell>
        <mxCell id="hiWiFX9fn5PAp972aiHe-26" value="N" style="resizable=0;html=1;whiteSpace=wrap;align=right;verticalAlign=bottom;" connectable="0" vertex="1" parent="hiWiFX9fn5PAp972aiHe-24">
          <mxGeometry x="1" relative="1" as="geometry">
            <mxPoint x="-7" y="20" as="offset" />
          </mxGeometry>
        </mxCell>
        <mxCell id="hiWiFX9fn5PAp972aiHe-27" value="" style="endArrow=none;html=1;rounded=0;exitX=0.5;exitY=0;exitDx=0;exitDy=0;" edge="1" parent="1" source="hiWiFX9fn5PAp972aiHe-6">
          <mxGeometry relative="1" as="geometry">
            <mxPoint x="545" y="419" as="sourcePoint" />
            <mxPoint x="545" y="329" as="targetPoint" />
          </mxGeometry>
        </mxCell>
        <mxCell id="hiWiFX9fn5PAp972aiHe-28" value="1" style="resizable=0;html=1;whiteSpace=wrap;align=left;verticalAlign=bottom;" connectable="0" vertex="1" parent="hiWiFX9fn5PAp972aiHe-27">
          <mxGeometry x="-1" relative="1" as="geometry">
            <mxPoint x="-19" y="-91" as="offset" />
          </mxGeometry>
        </mxCell>
        <mxCell id="hiWiFX9fn5PAp972aiHe-29" value="N" style="resizable=0;html=1;whiteSpace=wrap;align=right;verticalAlign=bottom;" connectable="0" vertex="1" parent="hiWiFX9fn5PAp972aiHe-27">
          <mxGeometry x="1" relative="1" as="geometry">
            <mxPoint x="-5" y="107" as="offset" />
          </mxGeometry>
        </mxCell>
        <mxCell id="hiWiFX9fn5PAp972aiHe-30" value="CARGO" style="swimlane;childLayout=stackLayout;horizontal=1;startSize=50;horizontalStack=0;rounded=1;fontSize=14;fontStyle=0;strokeWidth=2;resizeParent=0;resizeLast=1;shadow=0;dashed=0;align=center;arcSize=4;whiteSpace=wrap;html=1;" vertex="1" parent="1">
          <mxGeometry x="229" y="439" width="120" height="106" as="geometry" />
        </mxCell>
        <mxCell id="hiWiFX9fn5PAp972aiHe-31" value="codigo FK&amp;nbsp;&lt;br&gt;nome&lt;br&gt;salario" style="align=left;strokeColor=none;fillColor=none;spacingLeft=4;fontSize=12;verticalAlign=top;resizable=0;rotatable=0;part=1;html=1;" vertex="1" parent="hiWiFX9fn5PAp972aiHe-30">
          <mxGeometry y="50" width="120" height="56" as="geometry" />
        </mxCell>
        <mxCell id="hiWiFX9fn5PAp972aiHe-34" value="" style="endArrow=none;html=1;rounded=0;exitX=0;exitY=0;exitDx=0;exitDy=0;" edge="1" parent="1" source="hiWiFX9fn5PAp972aiHe-7">
          <mxGeometry relative="1" as="geometry">
            <mxPoint x="351" y="599" as="sourcePoint" />
            <mxPoint x="349" y="489" as="targetPoint" />
          </mxGeometry>
        </mxCell>
        <mxCell id="hiWiFX9fn5PAp972aiHe-35" value="1" style="resizable=0;html=1;whiteSpace=wrap;align=left;verticalAlign=bottom;" connectable="0" vertex="1" parent="hiWiFX9fn5PAp972aiHe-34">
          <mxGeometry x="-1" relative="1" as="geometry">
            <mxPoint x="-129" as="offset" />
          </mxGeometry>
        </mxCell>
        <mxCell id="hiWiFX9fn5PAp972aiHe-36" value="N" style="resizable=0;html=1;whiteSpace=wrap;align=right;verticalAlign=bottom;" connectable="0" vertex="1" parent="hiWiFX9fn5PAp972aiHe-34">
          <mxGeometry x="1" relative="1" as="geometry">
            <mxPoint x="120" as="offset" />
          </mxGeometry>
        </mxCell>
      </root>
    </mxGraphModel>
  </diagram>
</mxfile>
